<?xml version="1.0" encoding="UTF-8" standalone="no"?>
<!-- Created with Inkscape (http://www.inkscape.org/) -->

<svg
   xmlns:dc="http://purl.org/dc/elements/1.1/"
   xmlns:cc="http://creativecommons.org/ns#"
   xmlns:rdf="http://www.w3.org/1999/02/22-rdf-syntax-ns#"
   xmlns:svg="http://www.w3.org/2000/svg"
   xmlns="http://www.w3.org/2000/svg"
   xmlns:sodipodi="http://sodipodi.sourceforge.net/DTD/sodipodi-0.dtd"
   xmlns:inkscape="http://www.inkscape.org/namespaces/inkscape"
   width="210mm"
   height="297mm"
   viewBox="0 0 210 297"
   version="1.1"
   id="svg8"
   inkscape:version="0.92.4 (5da689c313, 2019-01-14)"
   sodipodi:docname="spirals.svg">
  <defs
     id="defs2" />
  <sodipodi:namedview
     id="base"
     pagecolor="#ffffff"
     bordercolor="#666666"
     borderopacity="1.0"
     inkscape:pageopacity="0.0"
     inkscape:pageshadow="2"
     inkscape:zoom="0.35"
     inkscape:cx="400"
     inkscape:cy="560"
     inkscape:document-units="mm"
     inkscape:current-layer="layer1"
     showgrid="false"
     inkscape:window-width="1920"
     inkscape:window-height="1001"
     inkscape:window-x="1699"
     inkscape:window-y="-9"
     inkscape:window-maximized="1" />
  <metadata
     id="metadata5">
    <rdf:RDF>
      <cc:Work
         rdf:about="">
        <dc:format>image/svg+xml</dc:format>
        <dc:type
           rdf:resource="http://purl.org/dc/dcmitype/StillImage" />
        <dc:title></dc:title>
      </cc:Work>
    </rdf:RDF>
  </metadata>
  <g
     inkscape:label="Ebene 1"
     inkscape:groupmode="layer"
     id="layer1">
    <path
       sodipodi:type="spiral"
       style="fill:none;fill-rule:evenodd;stroke:#000000;stroke-width:0.26458332"
       id="path3713"
       sodipodi:cx="46.869045"
       sodipodi:cy="82.309525"
       sodipodi:expansion="1"
       sodipodi:revolution="3"
       sodipodi:radius="106.92918"
       sodipodi:argument="-18.084156"
       sodipodi:t0="0"
       d="m 46.869045,82.309525 c 3.866033,3.714416 -3.099595,7.043896 -6.173604,6.4256 -8.330375,-1.675545 -9.876085,-12.271876 -6.677596,-18.772809 5.721346,-11.628644 21.149261,-13.286104 31.372013,-6.929592 15.002299,9.328437 16.794319,30.146038 7.181588,43.971216 -12.812258,18.42679 -39.18506,20.3442 -56.570422,7.43359 C -5.8766797,98.190834 -7.9145737,66.193342 8.3154439,45.267899 27.97217,19.924384 65.630066,17.768449 90.084275,37.330323 118.90271,60.383314 121.17539,103.72244 98.273847,131.69836 71.833104,163.99767 22.799533,166.38636 -8.6933928,140.13993 -44.477657,110.31706 -46.981932,55.580106 -17.386957,20.573482 15.814132,-18.69866 76.260783,-21.318239 114.77869,11.627922 157.54087,48.204406 160.27558,114.3654 123.97625,156.39278" />
    <path
       sodipodi:type="spiral"
       style="fill:none;fill-rule:evenodd;stroke:#000000;stroke-width:0.26458332"
       id="path3715"
       sodipodi:cx="97.51786"
       sodipodi:cy="169.24405"
       sodipodi:expansion="1"
       sodipodi:revolution="3"
       sodipodi:radius="63.360355"
       sodipodi:argument="-17.90317"
       sodipodi:t0="0"
       d="m 97.51786,169.24405 c 1.85721,2.57735 -2.557939,3.77506 -4.283731,3.0868 -4.676788,-1.86512 -4.447547,-8.20623 -1.889877,-11.65426 4.575071,-6.16773 13.744268,-5.48829 19.024798,-0.69295 7.74939,7.03735 6.57354,19.36237 -0.50397,26.39533 -9.43321,9.37384 -25.009546,7.67856 -33.765875,-1.7009 -11.018946,-11.80309 -8.793976,-30.67072 2.89783,-41.13641 14.160344,-12.67534 36.339825,-9.91545 48.506945,4.09476 14.33852,16.51054 11.04072,42.01388 -5.29169,55.87748 -18.85641,16.00607 -47.691223,12.16854 -63.24801,-6.48861 -17.676609,-21.19944 -13.29813,-53.3709 7.685538,-70.61855 23.540504,-19.34927 59.052252,-14.42901 77.989082,8.88246 21.02348,25.88015 15.56085,64.73488 -10.07939,85.35962" />
    <path
       sodipodi:type="spiral"
       style="fill:none;fill-rule:evenodd;stroke:#000000;stroke-width:0.26458332"
       id="path3717"
       sodipodi:cx="120.95238"
       sodipodi:cy="245.59523"
       sodipodi:expansion="1"
       sodipodi:revolution="3"
       sodipodi:radius="38.046265"
       sodipodi:argument="-17.993851"
       sodipodi:t0="0"
       d="m 120.95238,245.59523 c 1.25077,1.44029 -1.32439,2.3966 -2.39385,2.07887 -2.89818,-0.86105 -3.1059,-4.66554 -1.76389,-6.86657 2.40054,-3.93712 7.92074,-4.02941 11.33929,-1.4489 5.01686,3.787 4.98389,11.22139 1.13392,15.812 -5.1314,6.11857 -14.53835,5.95178 -20.28472,0.81894 -7.23123,-6.45916 -6.92665,-17.86312 -0.50396,-24.75744 7.77874,-8.34995 21.19231,-7.90556 29.23016,-0.18897 9.47233,9.09373 8.88702,24.52423 -0.12601,33.70287 -10.40591,10.59711 -27.85801,9.87019 -38.175596,-0.44099 -11.723502,-11.71622 -10.854529,-31.19306 0.755976,-42.64831 13.02523,-12.85106 34.52906,-11.83974 47.12103,1.07096 13.97948,14.33332 12.82559,37.86576 -1.38594,51.59374" />
    <path
       sodipodi:type="spiral"
       style="fill:none;fill-rule:evenodd;stroke:#000000;stroke-width:0.26458332"
       id="path3721"
       sodipodi:cx="105.07738"
       sodipodi:cy="284.90475"
       sodipodi:expansion="1"
       sodipodi:revolution="3"
       sodipodi:radius="26.726952"
       sodipodi:argument="-17.780363"
       sodipodi:t0="0"
       d="m 105.07738,284.90475 c 0.64433,1.17497 -1.26595,1.44825 -1.95288,1.07094 -1.86155,-1.02249 -1.43792,-3.66534 -0.18899,-4.97669 2.23405,-2.3457 6.03761,-1.58746 8.0005,0.69296 2.88062,3.3466 1.75149,8.44569 -1.57491,11.0243 -4.43356,3.4369 -10.866956,1.9223 -14.04811,-2.45685 -4.003159,-5.51071 -2.096738,-13.29463 3.338799,-17.07192 6.583161,-4.5748 15.725941,-2.2733 20.095731,4.22074 5.14964,7.65302 2.4512,18.15952 -5.10269,23.11954 -8.72127,5.72655 -20.594604,2.63 -26.14335,-5.98463 -6.304839,-9.7885 -2.809413,-23.03075 6.866583,-29.16716 10.855007,-6.88412 25.467667,-2.98928 32.190967,7.74853 7.46413,11.921 3.16948,27.90517 -8.63048,35.21477" />
    <path
       style="fill:#00ff00;stroke-width:2.85714293"
       d=""
       id="path3725"
       inkscape:connector-curvature="0"
       transform="scale(0.26458333)" />
    <path
       style="fill:#00ff00;stroke-width:2.85714293"
       d="m 190.42725,576.74977 c 15.0575,-57.95493 64.46314,-110.66702 122.84928,-131.0709 18.14999,-6.34277 29.12612,-8.11494 57.43776,-9.27368 19.25,-0.78786 35,-0.49295 35,0.65536 0,5.05483 -18.63364,36.32362 -32.41988,54.40324 -11.97157,15.69982 -17.4034,20.4378 -26.42539,23.04992 -27.10192,7.84673 -50.44512,24.15954 -68.0337,47.54363 -6.89931,9.17267 -11.81143,11.89071 -34.79385,19.25264 -14.71822,4.71466 -33.78469,9.39768 -42.36995,10.40671 l -15.60954,1.8346 z"
       id="path3727"
       inkscape:connector-curvature="0"
       transform="scale(0.26458333)" />
    <path
       style="fill:#00ff00;stroke-width:2.85714293"
       d="m 421.42857,1023.1131 c -14.20688,-4.4699 -23.0041,-9.0008 -35.28988,-18.1756 -12.29117,-9.17876 -8.32614,-12.03908 16.71845,-12.06044 13.92921,-0.0119 22.49947,1.8077 34.28572,7.27934 15.13086,7.0243 31.42857,19.7873 31.42857,24.6121 0,3.584 -34.32086,2.3788 -47.14286,-1.6554 z"
       id="path3729"
       inkscape:connector-curvature="0"
       transform="scale(0.26458333)" />
    <path
       style="fill:#00ffff;stroke-width:2.85714293"
       d="m 474.45241,548.68954 c -12.58988,-12.82816 -35.82934,-26.72984 -54.80897,-32.78634 -5.69611,-1.81766 -20.18591,-4.22254 -32.19954,-5.34417 l -21.84299,-2.03934 12.89103,-17.14286 c 7.09006,-9.42857 17.41036,-25.70529 22.934,-36.17048 l 10.04297,-19.02761 17.83697,4.09327 c 23.67555,5.43313 61.19428,23.5722 82.21841,39.7499 l 16.99463,13.07707 -7.41953,14.85321 c -9.48021,18.97847 -30.49325,53.42464 -32.5904,53.42464 -0.88272,0 -7.20818,-5.70928 -14.05658,-12.68729 z"
       id="path3731"
       inkscape:connector-curvature="0"
       transform="scale(0.26458333)" />
    <path
       style="fill:#00ffff;stroke-width:2.85714293"
       d="m 359.61198,1136.2719 c -26.05283,-13.5347 -42.14323,-44.2203 -38.31598,-73.0715 3.41772,-25.7641 22.23311,-52.8861 43.36966,-62.5166 5.6305,-2.56538 7.9353,-2.08094 13.21974,2.7787 3.52017,3.2372 10.69966,8.4588 15.95441,11.6036 l 9.5541,5.7178 -11.92803,2.0152 c -13.11267,2.2154 -29.22468,14.5275 -35.89755,27.4314 -6.4239,12.4225 -5.30282,34.2746 2.34576,45.7238 18.04125,27.0061 57.42527,24.4887 67.06142,-4.2864 6.43108,-19.2043 -5.0599,-36.0054 -24.62567,-36.0054 -14.11151,0 -23.73971,19.4432 -12.4927,25.2277 5.65904,2.9106 12.14286,1.4148 12.14286,-2.8011 0,-1.5464 -2.46323,-2.0298 -5.47384,-1.0743 -7.76879,2.4657 -10.10683,-3.2361 -4.70657,-11.4779 5.97055,-9.1122 16.9148,-9.114 26.02457,0 14.01443,14.0144 5.93038,38.4332 -14.60037,44.102 -30.96143,8.5489 -56.31072,-23.7257 -43.02425,-54.7782 8.27055,-19.3295 33.56902,-33.3036 52.3877,-28.9372 28.61425,6.6391 48.88371,33.7807 45.64561,61.1214 -1.95389,16.4976 -6.95625,27.0858 -18.13042,38.3759 -20.03824,20.2461 -51.94284,24.6574 -78.51045,10.8553 z"
       id="path3733"
       inkscape:connector-curvature="0"
       transform="scale(0.26458333)" />
    <path
       sodipodi:type="spiral"
       style="fill:none;fill-rule:evenodd;stroke:#000000;stroke-width:0.26458332"
       id="path3741"
       sodipodi:cx="75.595238"
       sodipodi:cy="210.06548"
       sodipodi:expansion="1"
       sodipodi:revolution="3"
       sodipodi:radius="57.616264"
       sodipodi:argument="-18.185061"
       sodipodi:t0="0"
       d="m 75.595238,210.06548 c 2.274135,1.7814 -1.279322,3.94437 -2.960814,3.77976 -4.556739,-0.44608 -5.960517,-6.04273 -4.598709,-9.70139 2.435954,-6.54449 10.616675,-8.27043 16.441963,-5.41766 8.548844,4.18655 10.639453,15.2493 6.236606,23.18254 -5.868302,10.57376 -19.902311,13.03311 -29.923113,7.05555 -12.610157,-7.52214 -15.439396,-24.56493 -7.874503,-36.66368 9.162099,-14.65322 29.232938,-17.85298 43.404263,-8.69346 16.700419,10.79418 20.271119,33.90431 9.512399,50.14484 C 93.411962,252.50232 67.255422,256.4443 48.947917,244.08333 28.145768,230.03801 23.832262,200.83024 37.797622,180.45734 53.464645,157.60203 85.727042,152.9168 108.16418,168.4881 c 24.90949,17.28709 29.96659,52.60661 12.7882,77.10714" />
    <path
       style="fill:#ffff00;stroke-width:2.85714293"
       d="M 246.29988,870.25046 C 195.45561,852.68858 171.86707,790.8426 196.06643,738.54511 l 7.28317,-15.73971 7.44117,10 c 4.09264,5.5 15.55326,17.97124 25.46806,27.71387 14.43398,14.18335 18.02688,19.47667 18.02688,26.55844 0,10.73593 11.06568,22.87055 20.85588,22.87055 7.14461,0 17.69197,-9.07121 14.38845,-12.37472 -2.71811,-2.71811 -1.60842,-2.48878 18.58166,3.84015 9.96143,3.12258 23.14,5.67742 29.28571,5.67742 12.63989,0 13.35972,1.97696 7.68167,21.09709 -5.12323,17.2518 -26.27303,37.33914 -45.24669,42.97371 -19.61154,5.82401 -34.78007,5.56575 -53.53251,-0.91145 z"
       id="path3743"
       inkscape:connector-curvature="0"
       transform="scale(0.26458333)" />
    <path
       style="fill:#ffff00;stroke-width:2.85714293"
       d="m 422.85714,784.14384 c 0,-9.24991 -10.97296,-39.30169 -18.98425,-51.99239 -6.99757,-11.08488 -7.0935,-11.768 -2.03673,-14.50424 10.9204,-5.90907 26.40635,-25.03061 31.64515,-39.07439 l 5.41919,-14.52739 12.34774,16.52284 c 12.98017,17.36912 31.6089,53.22249 31.6089,60.83536 0,5.94306 -23.60955,28.65538 -41.27366,39.70513 -16.64306,10.41104 -18.72634,10.74869 -18.72634,3.03508 z"
       id="path3747"
       inkscape:connector-curvature="0"
       transform="scale(0.26458333)" />
    <path
       style="fill:#ffff00;stroke-width:2.85714293"
       d="m 197.27111,698.18458 c -3.45934,-8.04145 -8.1894,-23.73181 -10.51125,-34.86747 -4.19103,-20.10031 -4.17393,-20.28305 2.36644,-25.2844 10.07607,-7.70507 39.1338,-21.35626 55.8737,-26.24921 l 15,-4.38439 v 20.91536 c 0,11.50344 1.95348,26.45209 4.34106,33.21922 2.38758,6.76713 3.35187,13.14484 2.14286,14.1727 -1.20901,1.02784 -8.45696,4.17413 -16.10654,6.99174 -7.64959,2.81762 -20.81,10.74441 -29.24535,17.6151 -8.43536,6.87069 -15.83971,12.49217 -16.45411,12.49217 -0.6144,0 -3.94747,-6.57937 -7.40681,-14.62082 z"
       id="path3749"
       inkscape:connector-curvature="0"
       transform="scale(0.26458333)" />
    <path
       style="fill:#cc00ff;stroke-width:2.85714293"
       d="m 380.24937,704.34811 c -24.66321,-21.65658 -56.09206,-32.63528 -88.8208,-31.02683 l -18.57143,0.91269 -4.87494,-14.28571 c -2.68122,-7.85715 -4.93122,-22.80357 -5,-33.21429 l -0.12506,-18.92857 8.92857,-1.78571 c 11.44533,-2.28907 38.02264,-2.29009 54.71529,-0.002 l 13.01284,1.78361 -1.48565,14.64496 c -1.23786,12.20236 -0.42786,15.98095 4.85646,22.65504 5.20496,6.57385 8.20448,7.85459 16.72874,7.14286 8.71902,-0.72799 10.49672,-2.01402 11.07243,-8.01008 0.67582,-7.03873 0.64593,-7.04914 -2.05079,-0.71428 -3.24764,7.62903 -14.56466,8.6622 -21.2838,1.94306 -11.31442,-11.31441 -8.3446,-34.70471 4.22944,-33.31115 20.23048,2.2421 82.70504,41.15638 82.70504,51.51548 0,14.80139 -27.85041,52.31821 -38.50812,51.87364 -1.60625,-0.067 -8.59394,-5.10367 -15.52822,-11.19261 z"
       id="path3751"
       inkscape:connector-curvature="0"
       transform="scale(0.26458333)" />
    <path
       style="fill:#cc00ff;stroke-width:2.85714293"
       d="m 467.48628,1016.021 c -19.14035,-19.97822 -53.0174,-31.00265 -79.62914,-25.9133 -13.92948,2.66393 -15.38655,2.40377 -20.41627,-3.64539 -6.8172,-8.19893 -17.73029,-32.34229 -19.78202,-43.76434 -1.39725,-7.77856 -0.2967,-9.47744 10.60917,-16.37701 6.69248,-4.23397 17.67949,-13.18563 24.41559,-19.89256 10.34311,-10.29832 11.91751,-11.10754 10.12545,-5.20432 -3.95015,13.01216 -2.04882,36.21321 3.9277,47.92817 10.38589,20.35803 32.76276,35.0106 53.55117,35.06579 16.73809,0.0444 37.28584,-13.05745 45.68143,-29.1279 8.73601,-16.72204 3.25057,-41.76363 -11.54464,-52.70245 l -7.16383,-5.29658 6.72304,-18.45116 c 3.69767,-10.14814 7.91687,-18.8491 9.376,-19.33548 5.0881,-1.69603 28.83661,16.50729 36.35218,27.86408 27.83666,42.06404 13.44505,101.49477 -30.70896,126.81385 -19.24787,11.0373 -22.68272,11.2595 -31.51687,2.0386 z"
       id="path3753"
       inkscape:connector-curvature="0"
       transform="scale(0.26458333)" />
    <path
       style="fill:#cc00ff;stroke-width:2.85714293"
       d=""
       id="path3755"
       inkscape:connector-curvature="0"
       transform="scale(0.26458333)" />
    <path
       style="fill:#cc00ff;stroke-width:2.85714293"
       d="m 289.94524,554.55973 c 4.0584,-5.32083 12.15954,-12.97506 18.00255,-17.00939 12.11069,-8.3619 37.61096,-20.13857 39.50508,-18.24445 2.84354,2.84354 -55.53867,44.92808 -62.32695,44.92808 -1.40777,0 0.76092,-4.35341 4.81932,-9.67424 z"
       id="path3759"
       inkscape:connector-curvature="0"
       transform="scale(0.26458333)" />
    <path
       style="fill:#d40055;stroke-width:2.85714293"
       d="M 236.12842,942.74311 C 183.63834,929.47904 139.89,888.03561 122.57241,835.1699 c -5.76915,-17.61161 -6.82518,-26.38 -6.65068,-55.22164 0.18331,-30.29691 1.14175,-36.77872 8.2382,-55.71429 4.41692,-11.78571 12.36714,-28.21583 17.66717,-36.51136 10.2046,-15.9721 31.68463,-40.6315 35.39284,-40.6315 1.21355,0 4.28567,9.32143 6.82692,20.71429 2.54126,11.39286 7.6767,27.29737 11.41209,35.34337 l 6.79161,14.62908 -8.98242,18.12265 c -8.18122,16.50616 -8.98243,20.55847 -8.98243,45.431 0,25.12005 0.75549,28.84296 9.42797,46.45926 20.26986,41.17393 66.94922,60.865 109.72995,46.28814 24.32819,-8.28945 47.98494,-35.83442 47.98494,-55.87174 0,-6.73186 1.3691,-7.30913 27.85714,-11.74573 15.32143,-2.56625 30.75,-5.55293 34.28572,-6.63706 5.11683,-1.56894 6.42857,-0.85333 6.42857,3.50704 0,3.6557 -4.2418,7.53901 -12.75043,11.67282 -36.63929,17.80075 -64.39243,61.64829 -64.39243,101.73446 V 932.2808 L 325,938.52986 c -23.24484,8.13445 -65.43826,10.13477 -88.87158,4.21325 z"
       id="path3761"
       inkscape:connector-curvature="0"
       transform="scale(0.26458333)" />
  </g>
</svg>
